# AST/ASF file generated using VICON BodyLanguage
# -----------------------------------------------
:version 1.10
:name VICON
:units
  mass 1.0
  length 0.45
  angle deg
:documentation
   .ast/.asf automatically generated from VICON data using
   VICON BodyBuilder and BodyLanguage model FoxedUp or BRILLIANT.MOD
:root
   order TX TY TZ RX RY RZ
   axis XYZ
   position 0 0 0  
   orientation 0 0 0 
:bonedata
  begin
     id 1 
     name lhipjoint
     direction 0.577973 -0.728611 0.367523 
     length 2.48544 
     axis 0 0 0  XYZ
  end
  begin
     id 2 
     name lfemur
     direction 0.34202 -0.939693 0  
     length 7.1921  
     axis 0 0 20  XYZ
    dof rx ry rz
    limits (-160.0 20.0)
           (-70.0 70.0)
           (-60.0 70.0)
  end
  begin
     id 3 
     name ltibia
     direction 0.34202 -0.939693 0   
     length 7.71059   
     axis 0 0 20   XYZ
    dof rx
    limits (-10.0 170.0)
  end
  begin
     id 4 
     name lfoot
     direction 0.089538 -0.246004 0.965124   
     length 2.19909   
     axis -90 7.62852e-016 20   XYZ
    dof rx rz
    limits (-45.0 90.0)
           (-70.0 20.0)
  end
  begin
     id 5 
     name ltoes
     direction 1.53544e-011 -4.21829e-011 1   
     length 1.10116   
     axis -90 7.62852e-016 20   XYZ
    dof rx
    limits (-90.0 20.0)
  end
  begin
     id 6 
     name rhipjoint
     direction -0.554414 -0.743062 0.374812   
     length 2.4371  
     axis 0 0 0  XYZ 
  end
  begin
     id 7 
     name rfemur
     direction -0.34202 -0.939693 0   
     length 7.47254   
     axis 0 0 -20   XYZ
    dof rx ry rz
    limits (-160.0 20.0)
           (-70.0 70.0)
           (-70.0 60.0)
  end
  begin
     id 8 
     name rtibia
     direction -0.34202 -0.939693 0   
     length 7.65855   
     axis 0 0 -20   XYZ
    dof rx
    limits (-10.0 170.0)
 end
 begin
     id 9 
     name rfoot
     direction -0.133779 -0.367555 0.92033   
     length 2.43006  
     axis -90 -7.62852e-016 -20   XYZ
    dof rx rz
    limits (-45.0 90.0)
           (-20.0 70.0)
  end
  begin
     id 10 
     name rtoes
     direction -1.53563e-011 -4.21889e-011 1   
     length 1.19625   
     axis -90 -7.62852e-016 -20   XYZ
    dof rx
    limits (-90.0 20.0)
  end
  begin
     id 11 
     name lowerback
     direction 0.0249066 0.998043 -0.0573585   
     length 2.08485   
     axis 0 0 0   XYZ
    dof rx ry rz
    limits (-20.0 45.0)
           (-30.0 30.0)
           (-30.0 30.0)
  end
  begin
     id 12 
     name upperback
     direction 0.0237884 0.999673 0.00943178   
     length 2.08515   
     axis 0 0 0   XYZ
    dof rx ry rz
    limits (-20.0 45.0)
           (-30.0 30.0)
           (-30.0 30.0)
  end
  begin
     id 13 
     name thorax
     direction 0.0106671 0.999301 0.0358174   
     length 2.09037   
     axis 0 0 0   XYZ
    dof rx ry rz
    limits (-20.0 45.0)
           (-30.0 30.0)
           (-30.0 30.0)
  end
  begin
     id 14 
     name lowerneck
     direction -0.0580016 0.987052 0.149546   
     length 1.84454   
     axis 0 0 0   XYZ
    dof rx ry rz
    limits (-20.0 45.0)
           (-30.0 30.0)
           (-30.0 30.0)
  end
  begin
     id 15 
     name upperneck
     direction 0.079456 0.981963 -0.171567   
     length 1.88141   
     axis 0 0 0   XYZ
    dof rx ry rz
    limits (-20.0 45.0)
           (-30.0 30.0)
           (-30.0 30.0)
  end
  begin
     id 16
     name head
     direction 0.0262167 0.9967 -0.0768276  
     length 1.89541  
     axis 0 0 0   XYZ
    dof rx ry rz
    limits (-20.0 45.0)
           (-30.0 30.0)
           (-30.0 30.0)
  end
  begin
     id 17 
     name lclavicle
     direction 0.946135 0.322134 -0.0325326  
     length 3.949  
     axis 0 0 0   XYZ
    dof ry rz
    limits (-20.0 10.0)
           (0.0 20.0)
  end
  begin
     id 18 
     name lhumerus
     direction 1 -4.48964e-011 1.94005e-028   
     length 5.10995   
     axis 180 -30 -90   XYZ
    dof rx ry rz
    limits (-60.0 90.0)
           (-90.0 90.0)
           (-90.0 90.0)
  end
  begin
     id 19
     name lradius
     direction 1 -4.48976e-011 2.87852e-027   
     length 3.21207   
     axis 180 -30 -90   XYZ
    dof rx
    limits (-10.0 170.0)
  end
  begin
     id 20
     name lwrist
     direction 1 -4.48963e-011 1.9975e-027   
     length 1.60604   
     axis 2.96054e-016 90 90   XYZ
    dof ry
    limits (-180.0 0.0)
 end
  begin
     id 21 
     name lhand
     direction 1 -4.48919e-011 4.00227e-027   
     length 0.63349   
     axis -2.5488e-015 90 90   XYZ
    dof rx rz
    limits (-90.0 90.0)
           (-45.0 45.0)
  end
  begin
     id 22 
     name lfingers
     direction 1 -4.49037e-011 7.9652e-027   
     length 0.510736   
     axis -5.0975e-015 90 90   XYZ
    dof rx
    limits (0.0 90.0)
  end
  begin
     id 23
     name lthumb
     direction 0.707107 -6.34922e-011 0.707107   
     length 0.733318   
     axis -90 45 -4.48553e-014   XYZ
    dof rx rz
    limits (-45.0 45.0)
           (-45.0 45.0)
  end
  begin
     id 24 
     name rclavicle
     direction -0.940085 0.328911 -0.0897654   
     length 3.93848  
     axis 0 0 0   XYZ 
    dof ry rz
    limits (-10.0 20.0)
           (-20.0 0.0)
  end
  begin
     id 25 
     name rhumerus
     direction -1 -4.48958e-011 3.02044e-027  
     length 5.25109   
     axis 180 30 90   XYZ
    dof rx ry rz
    limits (-90.0 60.0)
           (-90.0 90.0)
           (-90.0 90.0)
  end
  begin
     id 26 
     name rradius
     direction -1 -4.4897e-011 9.78352e-028   
     length 3.28364   
     axis 180 30 90   XYZ
    dof rx
    limits (-10.0 170.0)
  end
  begin
     id 27 
     name rwrist
     direction -1 -4.48943e-011 1.99918e-027   
     length 1.64182   
     axis 2.96054e-016 -90 -90   XYZ
    dof ry
    limits (-180.0 0.0)
  end
  begin
     id 28
     name rhand
     direction -1 -4.49024e-011 3.98478e-027   
     length 0.599745   
     axis -2.5488e-015 -90 -90   XYZ
    dof rx rz
    limits (-90.0 90.0)
           (-45.0 45.0)
  end
  begin
     id 29
     name rfingers
     direction -1 -4.48914e-011 8.00621e-027   
     length 0.48353   
     axis -5.0975e-015 -90 -90   XYZ
    dof rx
    limits (0.0 90.0)
  end
  begin
     id 30
     name rthumb
     direction -0.707107 -6.34992e-011 0.707107   
     length 0.694255   
     axis -90 -45 4.48553e-014   XYZ
    dof rx rz
    limits (-45.0 45.0)
           (-45.0 45.0)
  end
:hierarchy
  begin
    root lhipjoint rhipjoint lowerback
    lhipjoint lfemur
    lfemur ltibia
    ltibia lfoot
    lfoot ltoes
    rhipjoint rfemur
    rfemur rtibia
    rtibia rfoot
    rfoot rtoes
    lowerback upperback
    upperback thorax
    thorax lowerneck lclavicle rclavicle
    lowerneck upperneck
    upperneck head
    lclavicle lhumerus
    lhumerus lradius
    lradius lwrist
    lwrist lhand lthumb
    lhand lfingers
    rclavicle rhumerus
    rhumerus rradius
    rradius rwrist
    rwrist rhand rthumb
    rhand rfingers
  end

#!OML:ASF E:\CV Data\Top Level 1\Subject 1\Session 1\player.ASF
:FULLY-SPECIFIED
:DEGREES
198
root 3.61457 17.8184 -27.5748 14.5101 -11.993 -5.08121
lowerback 8.11341 -0.316653 6.26167
upperback 1.6274 0.194157 3.03378
thorax -2.85142 0.048138 -0.390501
lowerneck -16.2898 -3.96314 -9.78198
upperneck 38.6535 -4.60263 4.39216
head 17.251 -2.76932 2.83069
rclavicle 7.15625e-015 1.82882e-014
rhumerus -23.3898 -9.56475 -82.1106
rradius 32.8638
rwrist -7.32478
rhand -16.8738 2.51021
rfingers 7.12502
rthumb 9.35714 -27.2621
lclavicle 7.15625e-015 1.82882e-014
lhumerus -18.8844 6.46619 81.7344
lradius 73.7168
lwrist 11.8388
lhand -5.58412 1.46079
lfingers 7.12502
lthumb 20.2321 30.4271
rfemur -24.9468 1.52656 26.454
rtibia 30.2839
rfoot -16.4084 -12.3672
rtoes 5.52503
lfemur -23.2371 5.56188 -12.1888
ltibia 26.6512
lfoot -6.36248 23.3315
ltoes 1.08554
199
root 3.59905 17.8184 -27.5789 14.5956 -12.005 -5.04624
lowerback 8.22338 -0.369893 6.32295
upperback 1.67873 0.136545 3.07978
thorax -2.86216 0.0195372 -0.370648
lowerneck -16.2912 -3.96405 -9.83061
upperneck 38.5113 -4.58111 4.39166
head 17.1729 -2.7642 2.83937
rclavicle -6.95746e-015 1.98785e-015
rhumerus -23.1365 -9.15575 -82.3774
rradius 32.6906
rwrist -7.27432
rhand -16.9189 2.47443
rfingers 7.12502
rthumb 9.31358 -27.2998
lclavicle -6.95746e-015 1.98785e-015
lhumerus -18.6558 5.76243 81.96
lradius 71.3541
lwrist 9.94072
lhand -4.48929 2.04038
lfingers 7.12502
lthumb 21.284 30.8917
rfemur -25.1049 1.41185 26.504
rtibia 30.3716
rfoot -16.4183 -12.2841
rtoes 5.47479
lfemur -23.3423 5.64882 -12.1823
ltibia 26.6519
lfoot -6.35902 23.2409
ltoes 1.14358
200
root 3.58407 17.8184 -27.5829 14.6801 -12.0163 -5.0033
lowerback 8.33589 -0.422596 6.37425
upperback 1.72861 0.0794441 3.13183
thorax -2.87581 -0.00880463 -0.33884
lowerneck -16.285 -3.97061 -9.89228
upperneck 38.3673 -4.56373 4.38926
head 17.0934 -2.76287 2.84869
rclavicle 9.14409e-015 1.11319e-014
rhumerus -22.8815 -8.71877 -82.6375
rradius 32.528
rwrist -7.19543
rhand -16.9242 2.44136
rfingers 7.12502
rthumb 9.30844 -27.3331
lclavicle 9.14409e-015 1.11319e-014
lhumerus -18.4226 4.97994 82.1641
lradius 68.9277
lwrist 7.26912
lhand -3.47 2.43947
lfingers 7.12502
lthumb 22.2628 31.1771
rfemur -25.2644 1.30438 26.5422
rtibia 30.463
rfoot -16.4332 -12.2064
rtoes 5.44523
lfemur -23.4458 5.72825 -12.1862
ltibia 26.6471
lfoot -6.34783 23.1559
ltoes 1.17887
201
root 3.5697 17.8185 -27.5867 14.7654 -12.0298 -4.95589
lowerback 8.44623 -0.469 6.42983
upperback 1.78522 0.0304089 3.17956
thorax -2.88074 -0.032879 -0.314638
lowerneck -16.2896 -3.98876 -9.95171
upperneck 38.2202 -4.56478 4.39028
head 17.0175 -2.76786 2.85545
rclavicle 2.16675e-014 -5.64548e-014
rhumerus -22.6107 -8.28444 -82.9026
rradius 32.3762
rwrist -7.08093
rhand -16.9044 2.40778
rfingers 7.12502
rthumb 9.32763 -27.3659
lclavicle 2.16675e-014 -5.64548e-014
lhumerus -18.1795 4.08084 82.3439
lradius 66.4811
lwrist 3.91084
lhand -2.34179 2.72623
lfingers 7.12502
lthumb 23.3455 31.3305
rfemur -25.4263 1.21242 26.5707
rtibia 30.5571
rfoot -16.45 -12.1408
rtoes 5.43242
lfemur -23.5491 5.8087 -12.1987
ltibia 26.6375
lfoot -6.32987 23.073
ltoes 1.19226
202
root 3.55619 17.8186 -27.5905 14.8509 -12.0393 -4.90306
lowerback 8.55781 -0.525095 6.47871
upperback 1.83518 -0.0310623 3.23666
thorax -2.89391 -0.0633353 -0.275409
lowerneck -16.2772 -4.00069 -10.0249
upperneck 38.0744 -4.55149 4.38534
head 16.9373 -2.77012 2.86486
rclavicle 0 -5.32743e-014
rhumerus -22.3326 -7.80746 -83.1664
rradius 32.2137
rwrist -6.92707
rhand -16.8683 2.38282
rfingers 7.12502
rthumb 9.36244 -27.3893
lclavicle 0 -5.32743e-014
lhumerus -17.9892 3.09697 82.5075
lradius 64.0875
lwrist 0.00577964
lhand -0.948244 2.89313
lfingers 7.12502
lthumb 24.6818 31.3213
rfemur -25.5905 1.12223 26.5909
rtibia 30.6512
rfoot -16.4642 -12.0819
rtoes 5.40264
lfemur -23.6533 5.87847 -12.2193
ltibia 26.6243
lfoot -6.30859 22.9961
ltoes 1.19816
203
root 3.54353 17.8188 -27.5937 14.9352 -12.0478 -4.84972
lowerback 8.67449 -0.578134 6.53796
upperback 1.88686 -0.0871528 3.29089
thorax -2.90776 -0.0911954 -0.245295
lowerneck -16.2783 -4.02189 -10.0904
upperneck 37.9344 -4.55256 4.37749
head 16.8653 -2.77735 2.8689
rclavicle 2.50469e-014 3.18055e-014
rhumerus -22.0435 -7.32719 -83.4336
rradius 32.056
rwrist -6.74581
rhand -16.8231 2.36768
rfingers 7.12502
rthumb 9.40608 -27.4024
lclavicle 2.50469e-014 3.18055e-014
lhumerus -17.8427 1.9495 82.6655
lradius 61.789
lwrist -4.29991
lhand 0.711467 2.84907
lfingers 7.12502
lthumb 26.2717 31.0501
rfemur -25.7494 1.043 26.6052
rtibia 30.7416
rfoot -16.4796 -12.0355
rtoes 5.37741
lfemur -23.7561 5.95004 -12.2452
ltibia 26.612
lfoot -6.28509 22.9185
ltoes 1.19196
204
root 3.53166 17.8188 -27.5963 15.0178 -12.06 -4.80404
lowerback 8.78752 -0.62806 6.61409
upperback 1.94845 -0.138579 3.34241
thorax -2.90895 -0.116421 -0.227827
lowerneck -16.3028 -4.05002 -10.1432
upperneck 37.7985 -4.56472 4.36654
head 16.8022 -2.78742 2.8671
rclavicle -4.96962e-015 6.36111e-015
rhumerus -21.7275 -6.84055 -83.7091
rradius 31.8964
rwrist -6.54971
rhand -16.783 2.42786
rfingers 7.12502
rthumb 9.44468 -27.3405
lclavicle -4.96962e-015 6.36111e-015
lhumerus -17.7499 0.614395 82.8267
lradius 59.6563
lwrist -8.79081
lhand 2.72705 2.74382
lfingers 7.12502
lthumb 28.1997 30.6424
rfemur -25.9001 0.981042 26.622
rtibia 30.8254
rfoot -16.4892 -12.0041
rtoes 5.33333
lfemur -23.854 6.01921 -12.2664
ltibia 26.6031
lfoot -6.26448 22.8501
ltoes 1.17968
205
root 3.5205 17.8185 -27.5981 15.0982 -12.1022 -4.77297
lowerback 8.90663 -0.670935 6.69357
upperback 2.01043 -0.179447 3.40243
thorax -2.91251 -0.136504 -0.204368
lowerneck -16.3208 -4.07738 -10.2064
upperneck 37.6635 -4.57135 4.35146
head 16.7382 -2.79738 2.86643
rclavicle 6.95746e-015 1.66979e-014
rhumerus -21.3977 -6.32593 -83.9775
rradius 31.7246
rwrist -6.34341
rhand -16.738 2.48527
rfingers 7.12502
rthumb 9.48817 -27.2811
lclavicle 6.95746e-015 1.66979e-014
lhumerus -17.7523 -0.89926 83.0177
lradius 57.7121
lwrist -13.3344
lhand 5.10042 2.65855
lfingers 7.12502
lthumb 30.4658 30.1605
rfemur -26.0395 0.952902 26.6432
rtibia 30.9012
rfoot -16.49 -11.9774
rtoes 5.26655
lfemur -23.9377 6.09249 -12.278
ltibia 26.5984
lfoot -6.25351 22.8113
ltoes 1.17821
206
root 3.50997 17.8181 -27.5993 15.1749 -12.1605 -4.75657
lowerback 9.02907 -0.705206 6.78589
upperback 2.08084 -0.207803 3.46559
thorax -2.90839 -0.15018 -0.18609
lowerneck -16.3536 -4.11217 -10.2646
upperneck 37.5294 -4.58696 4.33091
head 16.6793 -2.81076 2.86063
rclavicle -6.55989e-015 -1.66979e-014
rhumerus -21.0377 -5.81838 -84.2367
rradius 31.5357
rwrist -6.12372
rhand -16.6805 2.54562
rfingers 7.12502
rthumb 9.54366 -27.2182
lclavicle -6.55989e-015 -1.66979e-014
lhumerus -17.8282 -2.59772 83.251
lradius 55.9491
lwrist -17.7965
lhand 7.78293 2.64623
lfingers 7.12502
lthumb 33.0206 29.6421
rfemur -26.1634 0.955342 26.6695
rtibia 30.9692
rfoot -16.4935 -11.9552
rtoes 5.22785
lfemur -24.0089 6.1688 -12.2778
ltibia 26.5979
lfoot -6.25273 22.7891
ltoes 1.19286
207
root 3.5003 17.8177 -27.6001 15.2493 -12.2256 -4.74273
lowerback 9.1537 -0.73693 6.88083
upperback 2.16072 -0.232723 3.53328
thorax -2.89532 -0.161803 -0.164901
lowerneck -16.4026 -4.1536 -10.3259
upperneck 37.3877 -4.60784 4.30711
head 16.6214 -2.82668 2.85261
rclavicle 1.23246e-014 -2.06736e-014
rhumerus -20.6302 -5.32334 -84.4805
rradius 31.318
rwrist -5.87953
rhand -16.5899 2.59357
rfingers 7.12502
rthumb 9.63108 -27.1663
lclavicle 1.23246e-014 -2.06736e-014
lhumerus -17.9443 -4.3968 83.5429
lradius 54.323
lwrist -22.0739
lhand 10.7698 2.76004
lfingers 7.12502
lthumb 35.8561 29.1118
rfemur -26.2798 0.963064 26.6917
rtibia 31.0314
rfoot -16.5006 -11.9232
rtoes 5.21831
lfemur -24.0749 6.24111 -12.2791
ltibia 26.6007
lfoot -6.26429 22.7807
ltoes 1.22681
